<svg xmlns="http://www.w3.org/2000/svg" viewBox="0 0 760 140" role="img"><rect x="0.5" y="0.5" width="759" height="139" rx="14" fill="#0d0d0d" stroke="#262626"/><line x1="26" y1="70.0" x2="268.5" y2="70.0" stroke="#2e2e2e" stroke-dasharray="2 6"/><line x1="491.5" y1="70.0" x2="734" y2="70.0" stroke="#2e2e2e" stroke-dasharray="2 6"/><g transform="translate(290.5,55.0) scale(0.0857)" fill="#ededed"><path d="M318.029 88.3407C196.474 115.33 153.48 115.321 33.9244 88.3271C30.6216 87.5814 27.1432 88.9728 25.3284 91.8313L1.24109 129.774C-1.76483 134.509 0.965276 140.798 6.46483 141.898C152.613 171.13 197.678 171.182 343.903 141.835C349.304 140.751 352.064 134.641 349.247 129.907L326.719 92.0479C324.95 89.0744 321.407 87.5907 318.029 88.3407Z"/><path d="M75.9931 246.6L149.939 311.655C151.973 313.444 151.633 316.969 149.281 318.48L119.141 337.84C117.283 339.034 114.951 338.412 113.933 336.452L70.1276 252.036C68.0779 248.086 72.7553 243.751 75.9931 246.6Z"/><path d="M274.025 246.6L200.08 311.655C198.046 313.444 198.385 316.969 200.737 318.48L230.877 337.84C232.736 339.034 235.068 338.412 236.085 336.452L279.891 252.036C281.941 248.086 277.263 243.751 274.025 246.6Z"/><path d="M138.75 198.472L152.436 192.983C155.238 191.918 157.77 191.918 158.574 191.918C164.115 192.126 169.564 192.232 175.009 192.235C180.454 192.232 185.904 192.126 191.444 191.918C192.248 191.918 194.78 191.918 197.583 192.983L211.269 198.472C212.645 199.025 214.082 199.382 215.544 199.448C218.585 199.587 221.733 199.464 224.63 198.811C225.706 198.568 226.728 198.103 227.704 197.545L243.046 188.784C244.81 187.777 246.726 187.138 248.697 186.9L258.276 185.5H259.242H263.556L262.713 190.965L256.679 234.22C255.957 238.31 254.25 242.328 250.443 245.834L187.376 299.258C184.555 301.648 181.107 302.942 177.562 302.942H175.009H172.457C168.911 302.942 165.464 301.648 162.643 299.258L99.5761 245.834C95.7684 242.328 94.0615 238.31 93.3393 234.22L87.3059 190.965L86.4624 185.5H90.7771H91.7429L101.322 186.9C103.293 187.138 105.208 187.777 106.972 188.784L122.314 197.545C123.291 198.103 124.313 198.568 125.389 198.811C128.286 199.464 131.434 199.587 134.474 199.448C135.936 199.382 137.373 199.025 138.75 198.472Z"/><path d="M102.47 0.847827C205.434 44.796 156.456 42.1015 248.434 1.63153C252.885 -1.09955 258.353 1.88915 259.419 7.69219L269.235 61.1686L270.819 69.7893L263.592 71.8231L263.582 71.8259C190.588 92.3069 165.244 92.0078 86.7576 71.7428L79.1971 69.7905L80.9925 60.8681L91.8401 6.91975C92.9559 1.3706 98.105 -1.55777 102.47 0.847827Z"/></g><text x="333.5" y="74.0" font-family="'Geist Mono',ui-monospace,SFMono-Regular,Menlo,Consolas,monospace" font-size="12" fill="#4ade80" textLength="24" lengthAdjust="spacing">&lt;=&gt;</text><svg x="370.5" y="55.0" width="30" height="30" viewBox="0 0 425 425" preserveAspectRatio="xMidYMid meet"><g fill="#ededed" style="color:#ededed"><title>Devin</title><path d="M70 159.333V91.3471C70 88.3592 71.594 85.5983 74.1816 84.1044L133.043 50.1205C135.631 48.6265 138.819 48.6265 141.407 50.1205L200.269 84.1044C202.856 85.5983 204.45 88.3592 204.45 91.3471V126.068C204.708 137.606 210.806 148.734 221.531 154.926C232.256 161.117 244.942 160.834 255.063 155.289L285.132 137.929C287.719 136.435 290.907 136.435 293.495 137.929L352.357 171.913C354.944 173.406 356.538 176.167 356.538 179.155V247.123C356.538 250.111 354.944 252.872 352.357 254.366L293.495 288.35C290.907 289.844 287.719 289.844 285.132 288.35L255.306 271.13C245.146 265.456 232.344 265.117 221.534 271.358C210.809 277.55 204.711 288.678 204.453 300.215V334.926C204.453 337.914 202.859 340.675 200.271 342.169L141.41 376.153C138.822 377.647 135.634 377.647 133.046 376.153L74.1845 342.169C71.5969 340.675 70.0028 337.914 70.0028 334.926V266.959C70.0029 263.971 71.5969 261.21 74.1845 259.716L133.046 225.732C135.634 224.238 138.822 224.238 141.41 225.732L171.547 243.132C181.656 248.638 194.306 248.906 205.005 242.729C215.815 236.488 221.922 225.231 222.088 213.595C221.83 202.057 215.732 189.737 205.008 183.545C194.283 177.353 181.597 177.636 171.476 183.181L141.269 200.72C138.67 202.229 135.461 202.228 132.864 200.716L74.1576 166.562C71.5835 165.065 70 162.311 70 159.333Z" fill="#ededed"/></g></svg><text x="413.5" y="77.2" font-family="Inter,-apple-system,'Segoe UI',system-ui,sans-serif" font-size="20" font-weight="600" letter-spacing="-0.2" fill="#ededed">Devin</text></svg>